<?xml version="1.0" standalone="no"?>
<!DOCTYPE svg PUBLIC "-//W3C//DTD SVG 20010904//EN"
 "http://www.w3.org/TR/2001/REC-SVG-20010904/DTD/svg10.dtd">
<svg version="1.0" xmlns="http://www.w3.org/2000/svg"
 width="1024.000000pt" height="1024.000000pt" viewBox="0 0 1024.000000 1024.000000"
 preserveAspectRatio="xMidYMid meet">

<g transform="translate(0.000000,1024.000000) scale(0.100000,-0.100000)"
fill="#000000" stroke="none">
<path d="M4991 9140 c-255 -17 -540 -66 -711 -122 -156 -50 -278 -136 -322
-226 l-23 -47 -5 -780 c-4 -696 -7 -780 -21 -783 -8 -1 -45 18 -82 42 -93 62
-177 87 -312 93 -83 4 -126 1 -174 -12 -193 -50 -320 -176 -351 -347 -34 -186
108 -420 320 -526 30 -15 57 -28 59 -29 4 -2 -108 -217 -282 -538 -221 -409
-601 -1114 -665 -1236 -34 -64 -62 -127 -62 -141 0 -23 95 -203 432 -818 80
-146 190 -348 245 -450 56 -102 161 -295 235 -430 74 -135 168 -308 208 -385
40 -77 80 -148 88 -157 14 -16 42 -18 314 -18 l300 0 -9 -42 c-4 -24 -7 -77
-7 -118 7 -329 364 -464 666 -251 24 17 74 59 112 95 l69 65 33 -26 c50 -37
100 -52 180 -53 76 0 164 24 213 59 l27 20 65 -61 c151 -145 335 -222 483
-204 116 15 231 99 279 204 17 37 22 67 22 142 0 52 -4 112 -8 133 l-8 37 300
0 c354 0 312 -17 403 165 33 66 77 149 98 185 21 36 114 207 208 380 93 173
261 482 372 685 111 204 223 408 248 455 24 47 80 150 123 231 44 80 79 153
79 164 0 16 -57 125 -285 545 -276 507 -661 1223 -699 1297 l-36 72 43 19 c70
32 184 119 228 175 23 28 58 86 78 127 34 70 36 81 36 170 0 87 -3 101 -32
160 -85 173 -270 269 -498 257 -130 -7 -231 -41 -315 -107 -26 -21 -43 -27
-62 -23 l-28 5 -2 777 c-3 884 4 809 -93 907 -117 117 -381 200 -798 250 -155
18 -502 25 -676 14z m523 -190 c238 -15 455 -52 626 -105 98 -31 153 -60 195
-105 l30 -31 -32 -29 c-19 -17 -65 -39 -110 -53 -95 -30 -280 -70 -296 -64 -7
2 10 8 36 12 45 7 56 18 19 20 -58 4 -62 6 -62 25 0 18 -7 20 -60 20 -47 0
-60 3 -60 15 0 13 -43 15 -329 15 -181 0 -343 3 -360 6 -27 6 -31 4 -31 -15 0
-21 -2 -21 -220 -21 -172 0 -220 -3 -220 -13 0 -7 -13 -18 -30 -24 -23 -9 -32
-8 -41 3 -13 16 -39 19 -39 4 0 -5 -11 -10 -25 -10 -34 0 -32 -20 3 -21 15 0
22 -3 15 -5 -21 -9 -180 25 -267 57 -77 28 -126 58 -126 78 0 23 49 64 113 96
231 112 786 176 1271 145z m379 -397 c-7 -2 -19 -2 -25 0 -7 3 -2 5 12 5 14 0
19 -2 13 -5z m-1166 -9 c-3 -3 -12 -4 -19 -1 -8 3 -5 6 6 6 11 1 17 -2 13 -5z
m66 -11 c-7 -2 -19 -2 -25 0 -7 3 -2 5 12 5 14 0 19 -2 13 -5z m1567 -17 c0
-9 -100 -65 -171 -97 -222 -97 -419 -142 -709 -160 -361 -23 -734 5 -945 71
-125 39 -375 149 -375 165 0 2 33 -11 73 -30 120 -57 355 -108 627 -137 172
-18 621 -15 820 6 265 28 465 76 600 145 41 21 76 39 78 40 1 0 2 -1 2 -3z
m-1990 -1116 c113 -35 249 -63 420 -87 182 -25 702 -25 885 1 271 37 546 112
650 176 18 11 35 20 39 20 3 0 5 -134 4 -297 l-3 -298 -63 -33 c-294 -156
-932 -228 -1472 -166 -231 26 -486 88 -605 145 -114 56 -105 27 -105 358 l0
289 78 -39 c42 -22 120 -53 172 -69z m-721 -290 l34 -13 -55 -28 c-31 -15 -74
-49 -97 -75 -23 -26 -39 -41 -36 -32 4 11 0 18 -14 23 -12 3 -21 11 -21 17 0
5 -7 7 -16 4 -8 -3 -25 -1 -36 5 -15 8 -19 8 -14 0 5 -7 -7 -11 -36 -11 l-43
1 35 20 c26 15 29 18 10 13 -14 -3 -33 -13 -42 -22 -15 -12 -16 -18 -5 -30 9
-13 9 -14 0 -8 -8 4 -13 2 -13 -6 0 -9 -3 -9 -10 2 -7 12 -12 7 -24 -22 -13
-31 -14 -43 -2 -81 33 -109 122 -188 317 -281 256 -121 647 -220 1074 -270
773 -91 1644 15 2240 274 84 36 203 110 248 154 77 74 112 182 67 206 -11 6
-18 15 -14 21 9 16 -17 40 -37 34 -9 -3 -20 -1 -24 4 -4 7 1 9 12 5 16 -5 16
-4 -1 7 -10 6 -42 18 -70 25 -50 14 -51 14 -74 -12 -22 -26 -23 -26 -48 -7
-15 10 -49 32 -76 49 -45 29 -47 32 -26 38 13 4 61 9 108 12 136 10 263 -35
308 -109 18 -28 20 -41 13 -98 -11 -82 -30 -119 -95 -184 -116 -115 -405 -245
-733 -330 -171 -45 -241 -58 -463 -89 -313 -44 -419 -51 -780 -50 -380 0 -525
12 -839 64 -342 58 -623 140 -836 245 -245 121 -325 214 -325 376 0 65 2 70
37 104 57 55 134 76 263 71 58 -2 120 -9 139 -16z m3226 -150 c28 -9 27 -10
-10 -5 -184 24 -305 54 -305 75 0 7 243 -47 315 -70z m-2975 53 c-19 -8 -71
-21 -116 -29 -45 -8 -123 -23 -175 -34 -147 -32 -115 -16 48 23 81 20 166 40
188 45 22 6 51 10 65 10 22 0 21 -1 -10 -15z m3098 -38 c-3 -3 -9 2 -12 12 -6
14 -5 15 5 6 7 -7 10 -15 7 -18z m-3375 -710 c20 -8 48 -15 62 -15 14 0 25 -2
25 -4 0 -6 -167 -322 -225 -425 l-47 -85 20 -40 21 -41 0 54 c1 49 9 69 88
210 48 86 101 174 118 197 16 22 39 54 51 69 20 28 22 29 63 17 26 -8 39 -17
35 -24 -4 -7 -3 -8 4 -4 14 8 123 -24 117 -35 -3 -4 4 -5 14 -2 11 3 28 0 38
-7 16 -10 15 -10 -6 -4 -16 4 -21 3 -17 -5 4 -6 16 -11 27 -11 10 0 19 -5 19
-11 0 -12 40 -8 74 6 18 8 18 7 0 -13 -9 -12 -21 -19 -26 -16 -4 3 -8 -3 -8
-14 0 -10 6 -19 13 -20 6 0 39 -7 72 -16 33 -8 145 -28 249 -45 105 -18 191
-33 192 -34 17 -19 104 -185 104 -199 0 -11 -28 -83 -62 -159 -60 -136 -62
-139 -82 -124 -108 80 -183 112 -284 121 -166 16 -308 -40 -438 -171 l-81 -82
-43 69 c-24 37 -55 92 -69 121 -22 42 -32 53 -55 55 l-29 4 38 -69 c21 -37 58
-105 83 -151 l44 -84 -23 -79 c-13 -43 -26 -79 -29 -79 -6 0 -68 101 -130 212
-76 135 -54 77 30 -83 45 -84 82 -160 83 -168 1 -25 -35 -111 -44 -105 -5 3
-6 -3 -2 -13 3 -10 2 -15 -2 -10 -5 4 -50 -75 -100 -175 l-91 -183 -276 -3
-275 -3 -7 33 -7 33 -19 -25 c-27 -34 -34 -60 -21 -73 12 -12 621 -11 632 1 4
4 53 98 110 209 l104 202 17 -77 c41 -188 104 -288 245 -389 124 -88 269 -122
406 -93 84 17 203 81 278 149 l66 60 22 -46 22 -45 -24 -42 c-14 -22 -44 -77
-67 -121 -24 -44 -54 -95 -66 -114 -12 -18 -20 -39 -17 -47 6 -17 -36 -86 -48
-78 -5 3 -22 -22 -37 -55 l-27 -60 -299 -1 c-165 0 -297 3 -293 6 3 3 -3 15
-14 27 -10 11 -19 27 -19 34 0 7 -4 13 -8 13 -9 0 -26 31 -122 220 -84 166
-103 217 -84 224 16 6 19 26 5 26 -5 0 -20 -19 -34 -42 l-26 -43 131 -255 c72
-140 136 -258 142 -262 6 -4 156 -8 332 -8 l322 0 152 285 151 284 -36 65 -36
65 27 61 c19 41 31 57 39 50 5 -6 30 -52 55 -103 l45 -92 412 -3 413 -2 31 62
c18 35 39 73 47 86 l15 23 33 -50 c19 -28 34 -56 34 -62 0 -7 -14 -34 -30 -60
l-31 -47 89 -164 c102 -185 189 -342 209 -375 l13 -23 329 0 329 0 35 63 c19
34 80 152 137 263 l102 200 -28 46 -29 46 -1 -61 c0 -58 -5 -71 -82 -211 -45
-82 -82 -152 -82 -155 0 -4 -9 -12 -20 -19 -11 -7 -20 -23 -20 -37 0 -19 -4
-23 -17 -18 -12 5 -15 2 -10 -10 4 -11 2 -14 -8 -11 -8 3 -11 12 -8 20 3 8 -1
14 -11 14 -22 0 -21 -37 2 -43 9 -3 -1 -6 -23 -7 -35 -2 -37 -3 -15 -10 14 -4
-100 -8 -257 -9 -265 -1 -284 0 -302 18 -21 21 -98 145 -128 206 -10 22 -50
93 -87 157 -65 111 -68 119 -56 148 22 54 31 53 105 -10 49 -43 92 -69 149
-92 76 -30 89 -32 206 -33 l125 0 90 43 c74 35 102 56 157 114 108 115 155
227 174 421 4 41 10 65 16 59 5 -5 49 -88 98 -186 49 -98 106 -206 127 -242
l37 -64 293 0 293 0 -42 68 c-46 74 -63 97 -52 69 3 -9 1 -24 -6 -32 -7 -8 -9
-15 -4 -15 5 0 1 -5 -8 -11 -10 -5 -18 -16 -18 -23 0 -10 -45 -13 -211 -12
l-210 1 -19 25 c-25 32 -240 443 -240 458 0 7 32 78 70 159 39 80 69 148 67
150 -2 1 -42 -64 -88 -145 -47 -81 -89 -146 -95 -145 -5 1 -15 26 -23 55 l-14
53 52 100 c28 55 84 163 126 240 41 77 75 148 75 158 0 10 -32 75 -72 145 -82
145 -207 383 -208 395 0 4 11 7 25 7 15 0 40 7 56 16 17 8 32 14 34 12 20 -20
89 -138 165 -279 51 -96 166 -307 255 -469 89 -162 186 -340 215 -395 29 -55
76 -143 105 -195 29 -52 84 -156 122 -230 39 -74 81 -153 93 -175 l23 -40
-118 -220 c-103 -193 -251 -463 -364 -665 -20 -36 -59 -108 -86 -160 -26 -52
-63 -117 -80 -145 -18 -27 -43 -72 -57 -100 -20 -40 -280 -522 -380 -702 l-23
-43 -225 0 -225 0 0 113 c0 94 -4 120 -22 159 -32 71 -103 141 -176 174 -83
37 -199 40 -299 5 -114 -38 -279 -159 -341 -248 l-27 -39 -62 30 c-57 28 -71
31 -158 31 -84 0 -101 -4 -146 -27 l-52 -27 -83 82 c-148 145 -317 222 -472
215 -213 -9 -332 -150 -330 -390 l1 -77 -218 -1 c-163 0 -220 3 -228 12 -5 7
-20 31 -32 53 -123 217 -219 392 -308 560 -58 110 -113 211 -124 224 -10 13
-18 27 -18 31 0 5 -22 46 -49 92 -27 45 -142 254 -256 463 -114 209 -235 427
-268 485 -33 58 -60 110 -60 115 0 6 31 66 70 135 83 148 296 540 376 692 32
58 80 146 108 195 28 48 114 205 191 347 77 142 154 280 171 306 18 26 40 62
49 79 20 36 16 35 61 16z m3184 -162 c75 -121 160 -267 192 -331 l32 -63 -107
-207 c-58 -114 -111 -213 -116 -219 -13 -16 -26 -8 -38 20 -5 12 -29 48 -55
80 -158 199 -424 259 -650 147 -93 -46 -84 -51 -147 75 -75 148 -75 138 -9
257 42 76 63 104 79 106 12 2 22 7 22 11 0 5 10 6 23 4 13 -3 60 3 106 11 46
9 85 16 88 16 2 0 1 5 -2 10 -3 6 -1 10 4 10 6 0 11 -4 11 -9 0 -5 9 -7 20 -4
11 3 18 8 15 12 -2 4 6 7 18 7 18 -1 22 5 22 30 0 17 5 31 10 31 6 1 33 6 60
13 28 6 60 12 73 13 12 1 22 5 22 10 0 4 8 7 18 8 9 0 64 15 122 33 123 39
116 41 187 -71z m-2741 9 c-10 -2 -22 0 -28 6 -6 6 0 7 19 4 21 -5 23 -7 9
-10z m1882 -94 c-8 -13 -18 -35 -21 -50 -4 -14 -32 -69 -62 -122 -30 -52 -55
-100 -55 -107 0 -11 73 -154 126 -247 l19 -33 -41 -37 c-99 -90 -154 -188
-180 -319 -16 -82 -14 -206 6 -273 9 -32 6 -43 -38 -130 l-48 -95 -363 -1
c-200 -1 -372 1 -383 4 -11 2 -23 12 -26 21 -4 9 -33 61 -64 116 l-57 101 6
94 c8 146 -32 299 -103 397 -19 27 -41 58 -50 70 -14 20 -11 30 64 180 l79
158 -43 60 c-24 33 -50 78 -59 100 -14 34 -40 90 -53 117 -3 6 42 3 93 -7 14
-3 43 -42 85 -114 l65 -110 427 -1 428 0 35 68 c20 37 50 90 68 119 31 50 34
52 82 56 28 2 56 4 64 5 11 2 11 -2 -1 -20z m-1012 -106 c3 3 21 2 40 -2 19
-5 37 -4 40 1 3 5 10 7 15 3 15 -9 220 -10 226 -1 2 4 8 5 13 2 7 -5 177 -8
305 -6 11 1 46 0 77 0 l57 -1 -16 -34 -17 -34 -406 0 -406 0 -17 35 c-18 38
-16 39 36 36 20 -1 26 2 21 11 -5 9 -2 8 9 -1 10 -8 20 -11 23 -9z m-614 -532
c95 -27 178 -135 178 -232 0 -150 -99 -248 -251 -248 -145 0 -258 108 -259
248 0 164 164 278 332 232z m2090 -2 c51 -15 126 -82 149 -133 25 -55 24 -147
-2 -205 -27 -60 -54 -88 -114 -116 -197 -93 -422 91 -365 297 14 48 79 122
132 147 49 24 139 29 200 10z m-2352 -568 c55 -55 -14 -129 -78 -84 -44 31
-16 104 40 104 10 0 27 -9 38 -20z m2102 3 c20 -18 24 -73 6 -91 -32 -32 -98
0 -98 46 0 53 54 79 92 45z m-1611 -596 c-10 -9 -11 -8 -5 6 3 10 9 15 12 12
3 -3 0 -11 -7 -18z m99 -1491 c68 -34 184 -122 242 -184 45 -48 46 -50 31 -73
-26 -39 -44 -49 -87 -49 -73 0 -85 -8 -118 -77 -37 -75 -33 -92 27 -109 22 -6
41 -16 43 -24 3 -9 -1 -11 -12 -7 -24 10 -19 -5 12 -30 l27 -23 -27 6 c-24 5
-28 3 -28 -15 0 -13 7 -21 18 -22 12 0 10 -3 -8 -11 -14 -6 -35 -15 -48 -21
-13 -6 -38 -10 -55 -9 -24 2 -28 0 -17 -8 20 -13 4 -13 -21 0 -15 8 -19 7 -19
-5 0 -11 -12 -15 -49 -15 -61 0 -89 9 -69 22 9 6 6 7 -9 3 -16 -4 -26 1 -42
24 -25 34 -26 42 -7 35 10 -4 13 0 11 13 -2 10 -4 27 -5 38 -2 17 -3 16 -10
-5 l-8 -25 -1 26 c-1 39 19 89 55 137 l32 43 -28 30 c-15 17 -45 60 -65 95
-21 35 -40 64 -43 64 -3 0 -2 -33 1 -72 5 -66 4 -71 -9 -53 -21 28 -44 111
-44 157 0 54 21 98 64 136 34 29 48 36 101 44 37 7 114 -11 165 -36z m1435 14
c55 -34 78 -89 73 -174 -2 -44 -12 -89 -26 -120 -26 -57 -35 -57 -21 -1 9 42
1 152 -11 138 -3 -4 -12 -27 -19 -50 -6 -24 -32 -72 -56 -108 -49 -71 -52 -80
-31 -92 27 -15 57 -82 63 -139 4 -37 3 -55 -4 -51 -5 3 -8 21 -7 39 2 18 -2 9
-9 -20 -7 -30 -15 -51 -18 -47 -4 3 -10 1 -15 -6 -4 -8 -3 -10 4 -5 7 4 12 1
12 -8 0 -8 -9 -20 -20 -26 -16 -9 -18 -8 -14 5 4 10 0 15 -11 15 -9 0 -14 -3
-12 -7 3 -5 -32 -7 -76 -6 -45 1 -90 2 -99 3 -10 0 -27 9 -37 19 -11 11 -22
17 -24 14 -9 -8 -95 47 -102 65 -10 27 30 52 85 52 36 0 53 6 74 25 15 14 26
29 24 33 -13 26 -46 79 -64 100 -19 23 -31 27 -91 30 l-69 4 -20 41 -20 41 76
70 c190 175 356 234 465 166z m-760 -229 c101 -47 147 -157 119 -285 -8 -40
-38 -99 -58 -115 -9 -7 -2 13 15 46 24 47 30 69 27 107 l-3 49 -25 -39 c-37
-57 -82 -79 -161 -78 -79 0 -126 23 -151 74 -17 32 -18 33 -18 10 0 -14 -7
-33 -15 -44 -13 -18 -14 -17 -21 8 -3 15 -4 51 -2 81 12 148 165 245 293 186z
m-468 -323 c-3 -8 -6 -5 -6 6 -1 11 2 17 5 13 3 -3 4 -12 1 -19z m1301 -63 c0
-5 -6 4 -13 20 -8 17 -14 37 -14 45 0 8 7 -1 14 -20 7 -19 13 -39 13 -45z
m-1311 19 c-3 -3 -12 -4 -19 -1 -8 3 -5 6 6 6 11 1 17 -2 13 -5z m-497 -23 c0
-6 -4 -13 -10 -16 -5 -3 -10 1 -10 9 0 9 5 16 10 16 6 0 10 -4 10 -9z m1811
-94 c-12 -53 -62 -129 -76 -115 -10 10 15 39 26 32 5 -3 9 2 9 10 0 9 5 16 11
16 6 0 9 6 6 14 -3 8 -2 16 3 18 5 2 10 24 11 51 2 31 6 44 13 37 6 -6 5 -28
-3 -63z m-216 33 c15 -7 10 -9 -23 -9 -26 -1 -41 3 -37 9 7 12 32 12 60 0z
m-1603 -55 c3 -13 1 -22 -3 -19 -9 5 -13 44 -5 44 2 0 6 -11 8 -25z m43 -58
c1 -7 7 -11 14 -9 7 1 10 -2 6 -7 -9 -16 -34 -1 -32 19 1 20 12 17 12 -3z"/>
<path d="M6253 8685 c0 -8 4 -12 9 -9 5 3 6 10 3 15 -9 13 -12 11 -12 -6z"/>
<path d="M4858 8683 c12 -2 32 -2 45 0 12 2 2 4 -23 4 -25 0 -35 -2 -22 -4z"/>
<path d="M4346 8621 c23 -11 61 -23 85 -27 l44 -7 -22 22 c-16 15 -34 21 -60
20 -21 -1 -49 2 -63 5 -14 4 -6 -2 16 -13z"/>
<path d="M6002 8608 c3 -7 17 -14 33 -16 26 -3 27 -2 12 12 -19 19 -50 21 -45
4z"/>
<path d="M3448 7053 c6 -2 18 -2 25 0 6 3 1 5 -13 5 -14 0 -19 -2 -12 -5z"/>
<path d="M6962 7039 c2 -6 8 -10 13 -10 5 0 11 4 13 10 2 6 -4 11 -13 11 -9 0
-15 -5 -13 -11z"/>
<path d="M3525 7030 c4 -6 11 -8 16 -5 14 9 11 15 -7 15 -8 0 -12 -5 -9 -10z"/>
<path d="M3495 6990 c3 -5 8 -10 11 -10 2 0 4 5 4 10 0 6 -5 10 -11 10 -5 0
-7 -4 -4 -10z"/>
<path d="M3560 6156 c0 -2 7 -7 16 -10 8 -3 12 -2 9 4 -6 10 -25 14 -25 6z"/>
<path d="M3605 6149 c-4 -6 -5 -12 -2 -15 2 -3 7 2 10 11 7 17 1 20 -8 4z"/>
<path d="M3928 6103 c7 -3 16 -2 19 1 4 3 -2 6 -13 5 -11 0 -14 -3 -6 -6z"/>
<path d="M4020 6070 c0 -5 5 -10 10 -10 6 0 10 5 10 10 0 6 -4 10 -10 10 -5 0
-10 -4 -10 -10z"/>
<path d="M7060 5440 c-6 -11 -8 -20 -6 -20 3 0 10 9 16 20 6 11 8 20 6 20 -3
0 -10 -9 -16 -20z"/>
<path d="M6980 4153 c-56 -103 -110 -199 -120 -212 -17 -25 -16 -27 98 -250
63 -124 126 -243 140 -265 22 -35 25 -37 36 -20 18 27 67 144 60 144 -3 0 2 7
11 16 13 13 13 19 3 31 -10 12 -9 14 7 11 10 -1 20 2 22 9 3 7 -4 10 -19 6
-19 -5 -21 -3 -10 8 29 31 4 66 -27 37 -9 -8 -12 -9 -7 -1 4 7 -1 9 -14 6 -11
-3 -20 -10 -20 -17 0 -6 -5 -4 -10 4 -10 16 -41 20 -51 7 -3 -4 -18 4 -33 18
-15 14 -24 25 -20 25 4 0 -7 12 -23 28 -17 15 -49 60 -71 100 l-41 73 43 92
c125 263 156 331 152 334 -2 2 -50 -81 -106 -184z"/>
<path d="M3480 4277 c0 -13 92 -212 128 -279 l37 -67 -40 -80 c-21 -45 -43
-81 -47 -81 -4 0 -8 -7 -8 -15 0 -8 -4 -15 -8 -15 -5 0 -16 -16 -25 -35 -9
-19 -21 -35 -26 -35 -4 0 -11 -14 -15 -31 l-6 -31 -20 23 c-10 13 -19 19 -20
13 0 -11 -30 -16 -30 -5 0 10 -87 4 -109 -8 -26 -14 -27 -50 -2 -82 10 -13 21
-34 25 -47 4 -12 12 -19 18 -16 6 4 8 2 5 -4 -6 -9 38 -112 48 -112 10 0 222
372 288 505 l24 49 -37 51 c-21 27 -68 106 -105 175 -67 126 -75 139 -75 127z
m-170 -708 c0 -5 -4 -9 -10 -9 -5 0 -10 7 -10 16 0 8 5 12 10 9 6 -3 10 -10
10 -16z"/>
<path d="M4502 4170 c-7 -11 -12 -25 -12 -32 1 -7 8 0 16 15 18 33 14 46 -4
17z"/>
<path d="M4644 3960 c-55 -22 -90 -110 -79 -199 15 -120 74 -233 186 -354 l60
-66 -47 -83 c-25 -46 -75 -133 -110 -194 -35 -61 -64 -114 -64 -117 0 -4 11
-7 23 -7 84 0 251 -93 359 -200 l78 -75 42 22 c24 12 51 22 61 23 20 0 22 11
5 30 -7 8 -4 7 8 -3 22 -18 39 -23 29 -8 -3 5 -1 13 5 16 6 4 9 1 8 -6 -6 -24
21 -19 35 7 12 22 15 24 20 10 4 -9 3 -15 -2 -12 -5 3 -11 0 -14 -8 -7 -18 84
-30 95 -13 5 8 8 7 8 -4 0 -8 21 -25 47 -37 l47 -21 33 37 c18 20 33 42 33 47
0 17 60 66 143 116 70 42 108 57 214 85 l31 9 -114 185 c-62 102 -114 189
-114 193 0 5 23 29 51 54 59 54 118 138 162 231 42 90 50 209 18 275 -34 69
-109 90 -156 42 -34 -34 -33 -77 2 -103 l28 -20 -24 -26 c-34 -36 -145 -91
-236 -118 -71 -20 -102 -23 -275 -23 -175 0 -203 2 -277 24 -91 25 -197 84
-227 125 -20 26 -20 26 2 49 36 38 28 88 -19 112 -31 17 -44 18 -75 5z m892
-495 c-79 -56 -147 -78 -263 -83 -84 -3 -114 -1 -170 17 -66 20 -179 78 -170
87 2 2 37 -1 78 -7 106 -16 409 -13 489 4 36 8 69 15 75 16 5 0 -12 -15 -39
-34z m-581 -213 c190 -95 481 -77 648 40 16 11 30 19 31 17 13 -14 177 -291
174 -294 -20 -18 -211 -141 -236 -152 -18 -7 -30 -18 -27 -22 2 -5 -10 -8 -28
-7 -23 1 -31 -3 -29 -13 3 -12 0 -12 -12 -1 -12 9 -16 10 -16 0 0 -7 -7 -10
-15 -7 -8 4 -17 2 -20 -4 -4 -5 -11 -7 -16 -3 -5 3 -17 0 -26 -8 -12 -9 -15
-9 -9 0 5 8 0 12 -14 12 -13 0 -19 -4 -14 -12 5 -7 3 -8 -6 -3 -18 11 -70 14
-70 4 0 -4 6 -10 13 -12 7 -4 8 -6 1 -6 -6 -1 -17 6 -24 14 -10 12 -16 13 -26
4 -11 -9 -14 -9 -14 0 0 8 -11 7 -35 -4 -20 -8 -33 -10 -30 -5 3 6 -3 10 -14
10 -10 0 -27 3 -36 7 -14 5 -16 2 -11 -18 6 -22 5 -21 -9 4 -16 28 -39 35 -51
15 -4 -6 3 -19 16 -30 12 -10 18 -18 12 -18 -6 0 -17 6 -24 13 -7 8 -23 13
-34 12 -11 -1 -21 4 -21 11 0 7 4 11 9 8 4 -3 16 -1 25 5 17 9 17 10 1 16 -10
4 -25 5 -33 1 -8 -3 -15 -2 -15 2 0 5 -33 24 -72 43 -64 30 -108 55 -206 116
l-23 14 54 102 c30 56 68 128 86 160 l33 57 26 -19 c15 -10 54 -32 87 -49z
m55 -517 c0 -5 -5 -3 -10 5 -5 8 -10 20 -10 25 0 6 5 3 10 -5 5 -8 10 -19 10
-25z m375 5 c-3 -5 -12 -10 -18 -10 -7 0 -6 4 3 10 19 12 23 12 15 0z m-248
-6 c-3 -3 -12 -4 -19 -1 -8 3 -5 6 6 6 11 1 17 -2 13 -5z"/>
<path d="M7100 3700 c-8 -5 -12 -12 -9 -15 4 -3 12 1 19 10 14 17 11 19 -10 5z"/>
<path d="M7246 3695 c-9 -26 -7 -35 8 -35 10 0 13 8 11 21 -6 29 -11 33 -19
14z"/>
<path d="M7055 3690 c3 -5 11 -10 16 -10 6 0 7 5 4 10 -3 6 -11 10 -16 10 -6
0 -7 -4 -4 -10z"/>
<path d="M3366 3672 c-3 -5 1 -9 9 -9 8 0 12 4 9 9 -3 4 -7 8 -9 8 -2 0 -6 -4
-9 -8z"/>
<path d="M3240 3630 c6 -11 13 -20 16 -20 2 0 0 9 -6 20 -6 11 -13 20 -16 20
-2 0 0 -9 6 -20z"/>
<path d="M6980 3396 c0 -7 -9 -25 -21 -40 -11 -14 -17 -26 -14 -26 4 0 1 -8
-6 -17 -12 -16 -12 -17 2 -6 13 11 20 9 39 -12 22 -23 22 -25 4 -32 -10 -3
-23 -11 -27 -17 -6 -7 -7 -4 -4 6 3 9 1 18 -6 21 -8 2 -8 5 1 11 7 4 12 2 12
-3 0 -6 8 -11 18 -11 15 1 15 2 -2 15 -13 10 -23 12 -30 5 -6 -6 -15 -5 -25 3
-10 7 -9 4 3 -10 10 -12 16 -28 13 -35 -2 -7 3 -21 12 -31 14 -17 14 -19 -2
-28 -9 -6 -17 -15 -17 -22 0 -7 -16 -23 -34 -37 -19 -14 -33 -27 -33 -30 1 -3
-1 -6 -5 -7 -17 -6 -28 -3 -28 8 0 5 5 7 10 4 6 -3 10 1 10 10 0 9 5 13 11 10
6 -4 19 2 30 14 11 12 17 21 14 21 -4 0 3 12 15 27 13 17 17 30 11 36 -5 5 -7
15 -5 22 3 7 1 16 -5 20 -6 3 -14 -1 -17 -9 -3 -9 -11 -13 -17 -9 -6 3 -7 1
-3 -5 7 -11 -6 -17 -28 -13 -5 1 -4 -4 3 -12 10 -12 7 -17 -16 -25 -26 -10
-27 -10 -4 -11 17 -1 22 -5 17 -17 -5 -14 -4 -15 8 -5 8 7 12 19 9 27 -3 8 -1
14 3 15 5 0 17 2 27 4 11 2 16 0 12 -3 -4 -4 -12 -7 -18 -7 -7 0 -13 -6 -13
-12 -1 -7 -3 -16 -4 -20 -1 -5 -2 -11 -2 -14 1 -3 -4 -6 -11 -6 -7 0 -20 -4
-29 -8 -13 -5 -18 -3 -18 8 0 34 -64 -6 -67 -42 -2 -21 23 -36 32 -21 4 6 1
10 -6 10 -7 0 -4 7 7 15 18 14 18 14 0 15 -15 0 -16 3 -6 15 12 14 24 13 26
-3 2 -18 19 -48 32 -58 11 -8 12 -13 3 -18 -9 -6 -9 -11 1 -23 12 -15 11 -15
-9 -2 -20 12 -20 15 -7 22 13 8 14 11 3 18 -8 4 -19 3 -26 -3 -7 -6 -13 -7
-13 -3 0 4 -8 1 -17 -6 -11 -10 -14 -10 -9 -1 7 11 -5 17 -28 13 -5 -1 -6 6
-2 16 6 17 5 17 -7 1 -8 -10 -16 -16 -19 -13 -2 3 -5 -2 -5 -10 0 -8 4 -12 9
-9 4 3 8 0 8 -7 0 -7 7 -4 15 7 16 21 20 8 6 -15 -8 -12 -14 -13 -36 -3 -16 7
-23 17 -19 24 4 7 3 8 -5 4 -6 -4 -9 -11 -6 -16 3 -4 -1 -10 -7 -13 -7 -2 -9
-8 -5 -13 4 -5 12 -2 16 5 6 9 11 10 15 2 4 -6 16 -11 26 -11 10 0 21 -4 24
-9 3 -4 -7 -6 -22 -4 l-27 4 24 -14 c20 -12 21 -15 7 -20 -10 -4 -15 -3 -11 3
6 9 -7 14 -27 11 -4 0 -5 6 -1 15 5 14 3 15 -15 5 -23 -12 -39 0 -26 21 4 7 3
8 -5 4 -6 -4 -10 -14 -9 -21 2 -8 -1 -13 -7 -12 -5 1 -9 5 -8 9 2 4 -11 2 -27
-4 -30 -10 -55 -40 -43 -51 3 -4 -2 -9 -11 -13 -22 -8 -20 -20 3 -20 11 0 17
4 15 8 -6 10 32 29 40 20 4 -3 3 5 -2 19 -7 18 -7 26 1 26 21 0 17 -49 -4 -54
-10 -3 -19 -14 -19 -25 0 -13 -4 -17 -12 -12 -8 5 -7 0 2 -11 14 -17 15 -17
18 8 3 27 12 34 26 20 4 -5 17 -8 29 -8 11 0 22 -5 24 -11 2 -7 -8 -11 -26
-10 -16 0 -27 4 -25 8 2 3 0 9 -6 13 -11 7 -13 -15 -4 -39 5 -12 10 -13 26 -5
11 6 22 8 26 5 3 -3 0 -6 -7 -6 -7 0 -9 -5 -6 -10 4 -6 11 -7 17 -4 7 5 8 2 3
-5 -5 -9 -10 -10 -18 -2 -6 6 -16 11 -21 11 -6 0 -5 -5 2 -12 7 -7 12 -16 12
-22 0 -5 -11 4 -23 22 -13 17 -27 29 -30 25 -4 -3 -2 -12 3 -18 8 -9 6 -14 -4
-18 -10 -4 -13 -1 -10 7 3 8 1 17 -5 21 -7 4 -11 -7 -11 -29 0 -36 -13 -55
-26 -35 -4 8 -3 9 4 5 7 -4 12 -3 12 1 0 5 -18 17 -40 27 -27 12 -40 23 -38
34 2 12 -4 17 -18 16 -18 0 -20 5 -17 38 3 24 0 38 -8 38 -6 0 -9 -7 -5 -15 3
-9 -3 -24 -14 -35 -20 -20 -20 -20 -20 0 0 12 7 20 17 20 9 0 13 3 9 7 -9 9
-36 13 -35 5 1 -4 1 -9 -1 -12 -8 -23 -7 -58 3 -56 7 1 9 1 5 -1 -5 -3 -8 -9
-8 -14 0 -6 4 -8 9 -4 5 3 12 1 15 -4 7 -11 -13 -9 -31 2 -16 10 -17 -5 -1
-21 9 -9 9 -12 0 -12 -7 0 -12 6 -12 13 0 9 -2 9 -8 0 -7 -10 -12 -10 -27 1
-16 12 -17 16 -6 29 7 9 10 25 6 36 -7 24 -35 36 -35 15 0 -8 -4 -13 -9 -10
-4 3 -17 -1 -27 -9 -14 -11 -15 -14 -3 -9 11 3 18 -2 22 -16 3 -12 10 -19 16
-15 6 3 11 -1 11 -10 0 -9 -5 -13 -10 -10 -6 4 1 -10 15 -31 14 -20 25 -41 25
-46 0 -5 4 -7 8 -4 4 2 8 -5 8 -17 0 -12 1 -48 2 -80 l2 -57 172 2 172 3 59
105 c33 58 120 212 194 343 121 214 134 241 124 263 -6 13 -14 24 -19 24 -4 0
-16 16 -26 35 -20 36 -36 46 -36 21z m43 -55 c2 -11 0 -24 -6 -30 -15 -15 -30
-14 -21 1 5 7 2 9 -8 5 -27 -10 -39 13 -20 38 19 26 46 19 55 -14z m-106 -95
c-3 -7 -1 -18 3 -22 6 -6 -3 -10 -19 -10 l-28 -2 21 23 c25 27 30 30 23 11z
m-137 -220 c0 -3 -4 -8 -10 -11 -5 -3 -10 -1 -10 4 0 6 5 11 10 11 6 0 10 -2
10 -4z m-71 -72 c6 4 11 2 11 -3 0 -14 -27 -14 -35 -1 -4 6 -11 7 -17 4 -6 -4
-8 -2 -5 3 4 6 -3 13 -14 16 -13 3 -18 10 -14 17 5 8 16 3 35 -15 16 -15 33
-24 39 -21z m-129 21 c0 -8 -4 -15 -8 -15 -5 0 -9 7 -9 15 0 8 4 15 9 15 4 0
8 -7 8 -15z m59 -24 c-6 -2 -15 3 -20 10 -15 24 -10 29 11 11 12 -10 16 -18 9
-21z m181 29 c0 -5 -2 -10 -4 -10 -3 0 -8 5 -11 10 -3 6 -1 10 4 10 6 0 11 -4
11 -10z m-60 -10 c0 -5 -5 -10 -11 -10 -5 0 -7 5 -4 10 3 6 8 10 11 10 2 0 4
-4 4 -10z m-80 -34 c0 -11 -19 -15 -25 -6 -3 5 1 10 9 10 9 0 16 -2 16 -4z
m-376 -51 c-3 -7 -13 -16 -22 -20 -9 -3 -13 -3 -9 1 4 4 1 14 -6 22 -8 11 -8
14 0 9 6 -4 14 -3 18 3 9 15 25 2 19 -15z m108 3 c-4 -18 -2 -20 16 -16 12 4
22 2 22 -4 0 -5 -10 -8 -22 -6 -15 2 -24 11 -26 26 -2 12 1 22 6 22 6 0 8 -10
4 -22z m12 -53 c3 -9 0 -15 -9 -15 -9 0 -12 6 -9 15 4 8 7 15 9 15 2 0 5 -7 9
-15z m44 -60 c-3 -3 -9 2 -12 12 -6 14 -5 15 5 6 7 -7 10 -15 7 -18z"/>
<path d="M6969 3344 c-16 -20 7 -25 25 -5 14 15 14 18 1 18 -8 0 -20 -6 -26
-13z"/>
<path d="M4563 3227 c-46 -83 -99 -180 -118 -214 -35 -62 -35 -63 -13 -63 13
0 28 4 34 8 6 4 54 89 108 190 75 141 97 188 92 207 -4 14 -10 25 -14 25 -4 0
-44 -69 -89 -153z"/>
<path d="M5831 3357 c-11 -21 -7 -34 42 -123 30 -54 75 -138 101 -186 26 -49
53 -88 61 -88 7 0 21 -3 30 -7 14 -5 12 4 -10 43 -31 56 -133 242 -180 327
-31 56 -32 57 -44 34z"/>
<path d="M3477 3319 c-24 -40 -25 -41 -37 -19 -6 12 -14 20 -16 17 -9 -9 177
-357 333 -624 l54 -93 169 0 170 0 0 58 c0 35 8 74 20 101 11 23 17 47 14 52
-3 5 1 9 8 9 19 0 42 40 30 52 -6 6 -16 7 -22 3 -9 -6 -9 -10 1 -16 10 -6 8
-8 -8 -7 -18 2 -20 5 -12 27 12 31 4 55 -16 47 -8 -3 -15 -1 -15 4 0 6 -8 10
-17 10 -17 -1 -16 -2 1 -15 10 -8 23 -12 27 -9 5 3 9 -3 9 -12 0 -14 -3 -15
-12 -6 -17 17 -29 15 -22 -3 4 -8 13 -15 21 -15 26 0 -14 -31 -44 -35 -24 -2
-25 -1 -10 10 9 7 17 14 17 17 0 9 -45 3 -53 -7 -5 -5 -5 0 -2 13 5 18 2 22
-15 22 -17 0 -20 4 -15 23 5 16 4 18 -3 8 -9 -12 -13 -12 -27 2 -15 16 -12 22
8 18 5 -1 6 3 2 9 -5 8 -11 7 -21 -1 -11 -9 -14 -9 -14 1 0 7 -8 3 -19 -9 -22
-25 -38 -12 -21 19 8 16 8 18 -4 14 -9 -3 -14 -11 -13 -17 1 -7 -5 -11 -13 -9
-8 1 -2 -9 14 -22 15 -13 24 -26 18 -30 -5 -3 -21 6 -35 20 -14 14 -28 21 -31
16 -6 -11 22 -46 44 -55 10 -3 7 -6 -8 -6 -12 -1 -25 6 -28 14 -4 8 -10 13
-14 10 -5 -3 -12 0 -16 6 -5 8 -3 9 6 4 9 -6 10 -1 5 16 -18 63 -18 61 3 55
13 -4 22 -1 26 9 3 8 1 15 -4 15 -6 0 -10 -5 -10 -11 0 -5 -5 -7 -10 -4 -6 4
-18 1 -26 -6 -12 -10 -12 -14 -2 -22 10 -7 9 -8 -3 -4 -9 3 -22 1 -28 -4 -8
-6 -8 -5 -1 3 14 17 12 37 -5 54 -17 18 -19 11 -5 -16 8 -14 5 -19 -12 -23
-13 -4 -19 -11 -15 -21 7 -18 -18 -42 -28 -26 -3 5 2 10 11 10 14 0 15 3 6 12
-8 8 -15 8 -26 -1 -19 -16 -37 -6 -29 16 4 11 3 14 -5 9 -7 -4 -12 -2 -12 3 0
6 5 11 10 11 6 0 10 5 10 10 0 6 -7 10 -16 8 -10 -2 -19 2 -21 9 -3 7 4 10 19
7 19 -4 18 -2 -7 13 -17 10 -31 25 -32 33 -2 29 -15 60 -24 55 -4 -3 -15 7
-24 22 -9 15 -14 20 -11 11 10 -34 -3 -18 -27 35 -35 73 -44 99 -46 145 -2 33
-17 27 -44 -19z m356 -384 c-3 -9 -8 -14 -10 -11 -3 3 -2 9 2 15 9 16 15 13 8
-4z m180 -37 c-2 -5 6 -8 17 -8 11 0 20 -4 20 -9 0 -10 -26 -9 -36 2 -14 13
-25 -5 -12 -21 8 -9 8 -13 2 -9 -7 4 -14 0 -18 -8 -7 -19 -25 -20 -22 -2 1 8
9 26 19 40 10 16 13 28 7 32 -6 3 -10 2 -10 -2 0 -5 -6 -17 -13 -27 -12 -16
-13 -16 -14 3 -1 12 2 21 8 21 5 0 8 3 8 8 -5 30 3 34 24 12 12 -14 21 -28 20
-32z m-196 -8 c-6 -25 2 -26 19 -2 12 15 12 15 7 -6 -6 -25 -40 -27 -35 -2 2
7 -3 17 -10 21 -10 6 -8 9 6 9 13 0 17 -5 13 -20z m66 -14 c4 -10 0 -12 -15
-8 -15 4 -17 7 -6 13 17 11 15 11 21 -5z m157 -20 c0 -3 -4 -8 -10 -11 -5 -3
-10 -1 -10 4 0 6 5 11 10 11 6 0 10 -2 10 -4z m-106 -37 c-3 -5 -10 -7 -15 -3
-5 3 -7 10 -3 15 3 5 10 7 15 3 5 -3 7 -10 3 -15z"/>
<path d="M3593 3245 c0 -8 4 -12 9 -9 5 3 6 10 3 15 -9 13 -12 11 -12 -6z"/>
<path d="M3557 3239 c7 -7 15 -10 18 -7 3 3 -2 9 -12 12 -14 6 -15 5 -6 -5z"/>
<path d="M3621 3224 c0 -11 3 -14 6 -6 3 7 2 16 -1 19 -3 4 -6 -2 -5 -13z"/>
<path d="M3575 3210 c-4 -6 -1 -9 7 -8 7 2 12 -3 10 -10 -1 -8 2 -11 8 -7 8 5
7 11 -1 21 -14 17 -16 17 -24 4z"/>
<path d="M3651 3114 c0 -11 3 -14 6 -6 3 7 2 16 -1 19 -3 4 -6 -2 -5 -13z"/>
<path d="M3670 3115 c0 -14 29 -35 35 -26 3 6 -4 15 -15 21 -11 6 -20 8 -20 5z"/>
<path d="M6800 3110 c-8 -26 -7 -41 2 -32 6 6 8 16 5 24 -3 7 -6 11 -7 8z"/>
<path d="M3673 3070 c1 -11 6 -19 12 -17 16 6 38 -22 38 -50 0 -18 2 -21 8
-12 5 8 6 22 3 33 -4 12 -2 16 5 12 7 -5 8 -1 4 9 -3 10 -8 13 -12 6 -4 -6
-17 -1 -33 14 -25 23 -27 23 -25 5z"/>
<path d="M3760 3045 c0 -5 5 -17 10 -25 5 -8 10 -10 10 -5 0 6 -5 17 -10 25
-5 8 -10 11 -10 5z"/>
<path d="M3753 3010 c2 -8 -5 -23 -16 -33 -28 -24 -18 -30 11 -6 19 15 21 22
12 36 -7 12 -10 13 -7 3z"/>
<path d="M3905 2989 c-4 -6 -5 -12 -2 -15 2 -3 7 2 10 11 7 17 1 20 -8 4z"/>
<path d="M6480 2969 c0 -4 5 -11 10 -14 6 -3 10 -1 10 6 0 8 4 8 15 -1 9 -7
18 -10 22 -6 3 3 1 6 -6 6 -7 0 -10 4 -7 8 2 4 -6 8 -20 8 -13 0 -24 -3 -24
-7z"/>
<path d="M6454 2952 c3 -6 1 -14 -4 -17 -8 -5 -6 -13 5 -25 9 -10 17 -24 19
-32 5 -33 36 -48 36 -17 0 6 -4 7 -10 4 -6 -3 -7 1 -4 10 4 10 -3 26 -16 41
-13 13 -18 24 -12 24 6 0 14 -5 17 -10 4 -6 11 -8 16 -5 13 9 11 22 -3 22 -7
0 -22 4 -32 9 -13 5 -17 4 -12 -4z"/>
<path d="M6342 2937 c-1 -7 -3 -23 -4 -37 -2 -14 -9 -29 -15 -33 -7 -4 -13
-12 -13 -17 0 -12 29 -14 31 -2 1 4 3 16 4 27 1 11 5 30 9 42 4 12 3 24 -2 27
-5 3 -9 0 -10 -7z"/>
<path d="M4090 2926 c-6 -8 -19 -13 -28 -10 -9 2 -6 -1 8 -8 14 -7 28 -16 31
-21 3 -5 9 -2 12 7 3 8 2 18 -4 21 -5 4 -7 11 -4 16 9 14 -1 11 -15 -5z"/>
<path d="M4236 2919 c4 -8 -1 -9 -17 -5 -13 3 -18 3 -11 0 6 -3 10 -9 8 -12
-2 -4 10 -8 26 -9 30 -2 30 -2 13 17 -20 22 -30 27 -19 9z"/>
<path d="M4260 2926 c0 -2 7 -9 15 -16 9 -7 15 -8 15 -2 0 5 -7 12 -15 16 -8
3 -15 4 -15 2z"/>
<path d="M6506 2912 c-3 -2 0 -15 5 -29 5 -14 7 -28 4 -33 -3 -5 -1 -11 5 -15
5 -3 15 6 20 20 6 16 14 23 22 19 6 -4 3 4 -7 18 -18 23 -38 31 -49 20z m38
-34 c-3 -4 -9 -8 -15 -8 -5 0 -9 4 -9 8 0 5 7 9 15 9 8 0 12 -4 9 -9z"/>
<path d="M4124 2870 c0 -13 4 -16 10 -10 7 7 7 13 0 20 -6 6 -10 3 -10 -10z"/>
<path d="M6734 2625 c-9 -14 -15 -27 -13 -30 3 -2 12 10 21 26 21 36 15 39 -8
4z"/>
<path d="M6388 2563 c23 -2 59 -2 80 0 20 2 1 4 -43 4 -44 0 -61 -2 -37 -4z"/>
<path d="M6528 2563 c12 -2 30 -2 40 0 9 3 -1 5 -23 4 -22 0 -30 -2 -17 -4z"/>
<path d="M6598 2563 c7 -3 16 -2 19 1 4 3 -2 6 -13 5 -11 0 -14 -3 -6 -6z"/>
<path d="M6637 6159 c7 -7 15 -10 18 -7 3 3 -2 9 -12 12 -14 6 -15 5 -6 -5z"/>
<path d="M4728 2113 c7 -3 16 -2 19 1 4 3 -2 6 -13 5 -11 0 -14 -3 -6 -6z"/>
<path d="M4543 2063 c9 -2 23 -2 30 0 6 3 -1 5 -18 5 -16 0 -22 -2 -12 -5z"/>
<path d="M5890 2135 c0 -8 7 -15 15 -15 8 0 15 7 15 15 0 8 -7 15 -15 15 -8 0
-15 -7 -15 -15z"/>
</g>
</svg>
